<svg xmlns="http://www.w3.org/2000/svg" data-v-423bf9ae="" viewBox="0 0 118.5572836874147 91" class="iconAboveSlogan"><!----><!----><!----><defs data-v-423bf9ae=""><linearGradient data-v-423bf9ae="" gradientTransform="rotate(25)" id="4e041071-f79f-4137-9d91-a2d26da1c9fd" x1="0%" y1="0%" x2="100%" y2="0%"><stop data-v-423bf9ae="" offset="0%" style="stop-color: rgb(66, 30, 86); stop-opacity: 1;"/><stop data-v-423bf9ae="" offset="100%" style="stop-color: rgb(188, 96, 131); stop-opacity: 1;"/></linearGradient></defs><g data-v-423bf9ae="" id="5191105e-71b3-4910-bfc5-fe0407373035" transform="matrix(1.0603954028030658,0,0,1.0603954028030658,7.512082722156308,-7.45864273818998)" stroke="none" fill="url(#4e041071-f79f-4137-9d91-a2d26da1c9fd)"><switch><g><path d="M49.5 45.673a4.701 4.701 0 0 1 4.696 4.696c0 .361-.045.724-.138 1.109l-.026.11-.013.112c-.06.5-.142 1.063-.186 1.27l-.037.094-.034.186c-.249 1.382-.267 3.974 1.073 8.473l.017.059.021.058c.196.532.38 1.094.547 1.675v.075l.091.246c.734 2.685 1.122 5.745 1.122 8.856 0 8.219-2.6 12.932-7.133 12.932-4.533 0-7.133-4.713-7.133-12.932 0-3.141.394-6.228 1.129-8.889.151-.505.433-1.424.545-1.739l.015-.042.013-.043c1.445-4.751 1.41-7.438 1.127-8.856l-.031-.153-.018-.048c-.098-.476-.337-2.193-.345-2.551a4.704 4.704 0 0 1 4.698-4.698m0-1.915a6.611 6.611 0 0 0-6.612 6.611c0 .538.344 2.897.431 3.128.215 1.074.287 3.427-1.081 7.923-.171.479-.576 1.834-.576 1.834-.768 2.777-1.21 5.998-1.21 9.437 0 10.434 4.051 14.847 9.048 14.847 4.998 0 9.048-4.413 9.048-14.847 0-3.44-.443-6.661-1.212-9.439l-.002-.007c-.2-.721-.422-1.411-.664-2.068-1.256-4.22-1.221-6.495-1.023-7.586.11-.28.273-1.665.273-1.665.12-.5.19-1.019.19-1.556a6.61 6.61 0 0 0-6.61-6.612z"/><path d="M48.067 52.691h2.867L49.5 57.579zM47.647 49.152c-1.305 0-1.305 2.022 0 2.022 1.304.001 1.304-2.022 0-2.022zM50.9 49.152c-1.305 0-1.305 2.022 0 2.022 1.304.001 1.304-2.022 0-2.022zM49.52 40.934l-.698-.726c-.155-.161-3.813-4.003-5.439-8.693-.762-2.199-.388-4.599 1.024-6.583 1.311-1.842 3.315-3.032 5.105-3.032 1.755 0 3.729 1.159 5.027 2.951 1.438 1.985 1.842 4.409 1.108 6.648-1.454 4.435-5.276 8.529-5.438 8.701l-.689.734zm-.007-17.118c-1.172 0-2.597.895-3.545 2.227-.616.866-1.537 2.646-.775 4.845 1.081 3.119 3.214 5.902 4.316 7.208 1.133-1.353 3.354-4.245 4.32-7.192.74-2.258-.208-4.057-.839-4.928-.936-1.292-2.334-2.16-3.477-2.16zM58.376 44.173l-.02-1.006c-.005-.224-.086-5.529 1.905-10.076 1.39-3.179 4.468-4.312 6.884-4.312 1.662 0 3.171.514 4.142 1.411 1.288 1.19 1.951 3.38 1.689 5.578-.291 2.435-1.639 4.489-3.698 5.636-4.078 2.27-9.662 2.683-9.898 2.699l-1.004.07zm8.77-13.48c-1.811 0-4.109.832-5.13 3.165-1.324 3.024-1.646 6.516-1.723 8.222 1.75-.224 5.344-.841 8.054-2.35 2.077-1.157 2.601-3.122 2.729-4.19.188-1.583-.248-3.168-1.088-3.944-.612-.565-1.675-.903-2.842-.903zM72.79 57.737c-4.425 0-9.041-1.824-9.235-1.902l-.935-.373.42-.915c.094-.204 2.331-5.017 6.103-8.244a6.984 6.984 0 0 1 4.603-1.691c2.887 0 5.719 1.667 6.587 3.878.643 1.633.286 3.894-.907 5.759-1.321 2.065-3.429 3.328-5.781 3.465-.284.015-.569.023-.855.023zm-7.533-3.325c1.674.56 5.166 1.576 8.276 1.39 2.372-.138 3.699-1.679 4.278-2.585.86-1.344 1.157-2.962.739-4.026-.504-1.281-2.484-2.664-4.806-2.664a5.091 5.091 0 0 0-3.357 1.231c-2.507 2.146-4.318 5.15-5.13 6.654zM72.818 75.123c-1.26 0-2.46-.321-3.565-.956-4.049-2.323-7.284-6.896-7.42-7.09l-.578-.824.853-.536c.189-.119 4.693-2.923 9.616-3.563 2.545-.33 4.931.706 6.582 2.732 1.313 1.611 1.922 3.611 1.59 5.218-.564 2.721-3.804 5.019-7.078 5.019zm-8.781-8.307c1.095 1.385 3.479 4.146 6.169 5.69a5.188 5.188 0 0 0 2.612.702c2.563 0 4.86-1.844 5.202-3.492.215-1.041-.256-2.462-1.199-3.621-1.234-1.516-2.982-2.288-4.851-2.043-3.273.427-6.431 1.951-7.933 2.764zM40.833 44.173l-1.004-.07c-.235-.017-5.82-.429-9.898-2.699-2.06-1.147-3.408-3.201-3.698-5.636-.263-2.198.4-4.387 1.689-5.578.971-.897 2.48-1.411 4.142-1.411 2.417 0 5.494 1.133 6.884 4.313 1.99 4.546 1.91 9.852 1.905 10.075l-.02 1.006zm-8.77-13.48c-1.168 0-2.231.337-2.842.903-.84.776-1.277 2.361-1.087 3.944.127 1.068.651 3.034 2.729 4.19 2.709 1.508 6.302 2.125 8.052 2.35-.078-1.709-.401-5.206-1.721-8.222-1.021-2.333-3.32-3.165-5.131-3.165zM26.419 57.737c-.001 0-.001 0 0 0-.287 0-.571-.008-.853-.023-2.353-.137-4.46-1.399-5.781-3.464-1.193-1.865-1.55-4.126-.908-5.76.869-2.211 3.701-3.878 6.587-3.878a6.98 6.98 0 0 1 4.603 1.692c3.77 3.227 6.008 8.04 6.101 8.243l.42.915-.935.373c-.194.078-4.809 1.902-9.234 1.902zm-.955-11.21c-2.321 0-4.301 1.383-4.805 2.664-.418 1.065-.122 2.684.738 4.027.58.906 1.907 2.446 4.278 2.584 3.106.19 6.602-.829 8.274-1.39-.814-1.505-2.628-4.514-5.128-6.654a5.091 5.091 0 0 0-3.357-1.231zM26.419 75.037c-3.707 0-6.75-2.8-7.164-5.313-.256-1.565.392-3.488 1.693-5.02 1.732-2.039 4.292-3.021 6.803-2.586 4.89.842 9.275 3.83 9.459 3.957l.829.571-.612.8c-.144.188-3.564 4.622-7.706 6.776a7.07 7.07 0 0 1-3.302.815zm.114-11.108c-1.534 0-3.038.734-4.126 2.016-.932 1.099-1.428 2.46-1.262 3.47.282 1.715 2.647 3.708 5.274 3.709.842 0 1.656-.201 2.419-.599 2.751-1.431 5.247-4.09 6.398-5.428-1.47-.877-4.567-2.532-7.811-3.091a5.201 5.201 0 0 0-.892-.077z"/><path d="M68.031 70.289c-2.618-1.22-4.862-3.529-4.862-3.529s2.79-1.184 5.863-1.308c2.942-.12 5.138 2.193 4.862 3.529-.276 1.335-3.188 2.556-5.863 1.308zM70.32 55.43c-2.88.22-5.967-.692-5.967-.692s1.851-2.4 4.469-4.015c2.507-1.546 5.553-.605 5.968.695.413 1.299-1.525 3.788-4.47 4.012zM81.584 42.004c-3.008 0-5.771-.744-5.888-.775l-.971-.265.313-.957c.057-.173 1.421-4.278 4.175-7.246 1.127-1.213 2.683-1.881 4.383-1.881 2.173 0 4.269 1.086 5.096 2.642.704 1.321.63 3.188-.192 4.872-.896 1.833-2.52 3.078-4.453 3.415-.748.129-1.576.195-2.463.195zm-4.35-2.387c1.017.206 2.659.472 4.35.472.777 0 1.495-.056 2.134-.167 1.81-.315 2.694-1.619 3.061-2.369.541-1.107.631-2.365.224-3.131-.42-.788-1.757-1.626-3.406-1.626-.821 0-2.005.22-2.979 1.269-1.7 1.829-2.838 4.227-3.384 5.552z"/><path d="M81.136 40.101c-2.289.442-4.852-.005-4.852-.005S77.548 38 79.5 36.462c1.867-1.472 4.4-.999 4.854.006.451 1.005-.875 3.183-3.218 3.633zM59.313 28.543l-.311-.958c-.062-.191-1.509-4.732-.977-9.161.438-3.661 3.786-5.848 6.771-5.848.771 0 1.464.147 2.061.437 1.439.7 2.595 2.432 2.943 4.413.387 2.191-.246 4.329-1.734 5.866-2.92 3.013-7.614 4.819-7.813 4.895l-.94.356zm5.484-14.052c-1.815 0-4.526 1.291-4.87 4.161-.341 2.841.243 5.816.619 7.329 1.467-.665 4.274-2.092 6.146-4.023 1.445-1.493 1.388-3.273 1.224-4.201-.242-1.374-1.004-2.589-1.896-3.022-.329-.16-.751-.244-1.223-.244z"/><path d="M64.481 23.62c-1.65 1.982-4.159 3.393-4.159 3.393s-.387-2.681.21-5.366c.57-2.57 3.07-3.938 4.164-3.394 1.091.545 1.479 3.34-.215 5.367zM40.123 29.523l-.896-.46c-.179-.092-4.408-2.289-7.156-5.801-1.303-1.664-1.689-3.834-1.062-5.954.583-1.969 1.958-3.583 3.501-4.113a4.386 4.386 0 0 1 1.423-.225c3.119 0 6.632 2.733 6.686 6.656.057 4.195-1.995 8.786-2.082 8.979l-.414.918zm-4.189-14.637c-.297 0-.567.041-.801.121-.946.325-1.887 1.495-2.287 2.846-.264.892-.521 2.627.733 4.229 1.763 2.253 4.276 3.95 5.61 4.757.571-1.506 1.553-4.499 1.516-7.186-.041-2.954-2.807-4.767-4.771-4.767z"/><path d="M39.814 22.193c.229 2.569-.554 5.339-.554 5.339s-2.165-1.627-3.637-3.951c-1.41-2.224-.603-4.957.556-5.343 1.158-.383 3.405 1.324 3.635 3.955zM88.43 64.941c-.452 0-.91-.05-1.36-.147-3.969-.862-7.847-3.798-8.01-3.923l-.8-.61.649-.769c.126-.148 3.121-3.656 7.031-5.479a6.12 6.12 0 0 1 2.607-.584c3.352 0 6.133 2.694 6.38 5.103.139 1.342-.456 2.894-1.59 4.15-1.295 1.436-3.084 2.259-4.907 2.259zm-7.342-4.984c1.302.868 3.877 2.42 6.388 2.966 1.608.352 3.278-.235 4.44-1.523.766-.849 1.189-1.872 1.107-2.672-.158-1.533-2.189-3.384-4.476-3.384-.617 0-1.223.137-1.799.405-2.47 1.151-4.6 3.123-5.66 4.208z"/><path d="M84.86 61.997c-2.446-.485-4.803-1.959-4.803-1.959s2.096-1.568 4.647-2.306c2.445-.705 4.762.784 4.804 1.962s-2.146 2.799-4.648 2.303zM18.738 42.004c-.887 0-1.715-.066-2.462-.196-1.934-.337-3.557-1.581-4.453-3.414-.823-1.684-.897-3.55-.194-4.872.828-1.556 2.924-2.642 5.097-2.642 1.7 0 3.256.668 4.382 1.881 2.754 2.967 4.119 7.072 4.175 7.246l.313.957-.971.265c-.115.031-2.879.775-5.887.775zm-2.011-9.209c-1.65 0-2.987.838-3.407 1.627-.408.766-.318 2.024.224 3.131.366.749 1.251 2.053 3.061 2.368.639.111 1.356.167 2.133.167 1.696 0 3.335-.266 4.351-.472-.547-1.325-1.685-3.723-3.383-5.553-.975-1.048-2.158-1.268-2.979-1.268z"/><path d="M19.186 40.101c2.29.442 4.852-.005 4.852-.005S22.774 38 20.822 36.462c-1.867-1.472-4.4-.999-4.854.006-.451 1.005.875 3.183 3.218 3.633zM11.893 64.941c-1.824 0-3.613-.823-4.909-2.26-1.134-1.257-1.729-2.809-1.591-4.15.249-2.409 3.03-5.103 6.38-5.103.899 0 1.777.196 2.608.584 3.91 1.823 6.905 5.331 7.03 5.479l.65.769-.8.61c-.163.125-4.042 3.061-8.01 3.923a6.325 6.325 0 0 1-1.358.148zm-.12-9.597c-2.286 0-4.317 1.851-4.476 3.384-.082.799.342 1.823 1.107 2.672.934 1.034 2.205 1.627 3.487 1.627.315 0 .635-.034.953-.104 2.518-.547 5.088-2.098 6.388-2.966-1.061-1.085-3.191-3.057-5.662-4.208a4.205 4.205 0 0 0-1.797-.405z"/><path d="M15.461 61.997c2.446-.485 4.802-1.959 4.802-1.959s-2.096-1.568-4.647-2.306c-2.444-.705-4.761.784-4.804 1.962-.041 1.178 2.147 2.799 4.649 2.303zM7.709 50.251c-1.473 0-2.847-.704-3.771-1.931-.842-1.12-1.17-2.493-.855-3.584.473-1.641 2.411-2.927 4.411-2.927.934 0 1.832.286 2.597.825 2.443 1.722 4.053 4.477 4.12 4.593l.504.872-.896.459c-.126.065-3.123 1.588-5.939 1.69l-.171.003zm-.214-6.526c-1.217 0-2.361.814-2.571 1.542-.145.501.08 1.283.545 1.902.328.436 1.055 1.167 2.24 1.167l.103-.002c1.503-.054 3.142-.623 4.154-1.039-.616-.865-1.674-2.177-2.978-3.096a2.543 2.543 0 0 0-1.493-.474zM26.899 27.821l-1.006-.045c-.142-.006-3.5-.17-5.996-1.479-1.335-.7-2.229-1.988-2.454-3.535-.207-1.425.185-2.816 1.021-3.63.654-.636 1.674-1 2.797-1 1.494 0 3.417.696 4.331 2.651 1.268 2.707 1.299 5.897 1.3 6.032l.007 1.006zm-5.636-7.774c-.611 0-1.171.176-1.462.458-.316.307-.595 1.059-.461 1.981.08.548.374 1.551 1.448 2.114 1.333.699 3.038 1.018 4.124 1.158-.106-1.056-.375-2.72-1.051-4.165-.673-1.435-2.159-1.546-2.598-1.546zM91.224 50.839l-.172-.003c-2.816-.103-5.814-1.625-5.94-1.689l-.896-.459.504-.872c.067-.116 1.678-2.871 4.121-4.594a4.489 4.489 0 0 1 2.597-.824c2 0 3.938 1.286 4.411 2.927.314 1.091-.014 2.465-.856 3.585-.924 1.226-2.298 1.929-3.769 1.929zm-4.26-2.957c1.013.417 2.652.985 4.157 1.04l.103.002c1.184 0 1.91-.73 2.237-1.166.545-.723.665-1.493.547-1.903-.21-.728-1.354-1.542-2.571-1.542-.544 0-1.047.16-1.493.475-1.31.922-2.366 2.232-2.98 3.094zM73.043 27.821l.006-1.007c0-.134.032-3.325 1.3-6.032.914-1.954 2.837-2.65 4.331-2.65 1.123 0 2.143.365 2.797 1 .838.813 1.229 2.205 1.022 3.63-.225 1.547-1.119 2.835-2.454 3.535-2.496 1.309-5.854 1.473-5.996 1.479l-1.006.045zm5.637-7.774c-.439 0-1.925.111-2.597 1.547-.68 1.451-.947 3.112-1.052 4.166 1.085-.141 2.791-.459 4.125-1.159 1.074-.563 1.368-1.566 1.448-2.114.134-.923-.146-1.674-.462-1.982-.291-.282-.851-.458-1.462-.458zM49.608 19.702l-.708-.716c-.095-.096-2.328-2.375-3.346-5.185-.508-1.402-.293-2.94.59-4.219.822-1.191 2.111-1.971 3.283-1.988 1.208 0 2.461.718 3.311 1.874.917 1.247 1.188 2.779.744 4.205-.841 2.691-3.1 5.182-3.195 5.287l-.679.742zm-.14-10.194c-.481.007-1.228.408-1.748 1.162-.31.448-.769 1.366-.366 2.479.546 1.506 1.531 2.87 2.202 3.689.668-.867 1.649-2.299 2.099-3.737.357-1.146-.134-2.058-.458-2.5-.554-.751-1.284-1.093-1.729-1.093zM65.153 40.784c-2.462 1.508-5.626 2.104-5.626 2.104s.553-2.979 2.146-5.61c1.526-2.519 4.666-3.071 5.628-2.103.961.967.372 4.068-2.148 5.609zM31.197 70.289c2.618-1.22 4.862-3.529 4.862-3.529s-2.79-1.184-5.863-1.308c-2.942-.12-5.137 2.193-4.862 3.529.276 1.335 3.187 2.556 5.863 1.308zM28.908 55.43c2.879.22 5.966-.692 5.966-.692s-1.85-2.4-4.468-4.015c-2.507-1.546-5.553-.605-5.968.695-.414 1.299 1.526 3.788 4.47 4.012z"/><g><path d="M34.074 40.784c2.462 1.508 5.626 2.104 5.626 2.104s-.553-2.979-2.147-5.61c-1.526-2.519-4.666-3.071-5.627-2.103-.961.967-.371 4.068 2.148 5.609z"/></g><g><path d="M51.971 33.697c-.675 2.808-2.491 5.466-2.491 5.466s-1.716-2.497-2.449-5.485c-.702-2.859 1.127-5.47 2.492-5.466 1.363.004 3.139 2.614 2.448 5.485z"/></g><g><path d="M44.758 85.864l1.91 6.604 2.832-4.93z"/></g><g><path d="M54.097 85.864l-1.912 6.604-2.832-4.93z"/></g></g></switch></g><!----></svg>